<?xml version="1.0" encoding="UTF-8"?>
<svg id="Layer_1" data-name="Layer 1" xmlns="http://www.w3.org/2000/svg" viewBox="0 0 20 20">
  <defs>
    <style>
      .cls-1 {
        fill: #fff;
        stroke-width: 0px;
      }
    </style>
  </defs>
  <path class="cls-1" d="m20,9.99c-.03,1.46-.03,2.91-.09,4.37-.06,1.3-.39,2.53-1.24,3.56-.94,1.13-2.18,1.76-3.62,1.92-1.14.13-2.3.14-3.45.15-1.84.01-3.69,0-5.53-.03-1.11-.02-2.19-.2-3.18-.74-1.56-.85-2.38-2.23-2.7-3.94C-.04,14.12,0,12.95,0,11.78c0-1.83,0-3.66.02-5.49,0-.93.12-1.84.44-2.72C1.18,1.65,2.61.59,4.56.2,5.23.07,5.93,0,6.62,0c2.49-.01,4.98,0,7.47.03,1.06.01,2.1.23,3.04.75,1.46.81,2.29,2.1,2.6,3.71.15.76.18,1.55.2,2.33.03,1.06,0,2.11,0,3.17.02,0,.04,0,.05,0Zm-1.75-.23s-.03,0-.04,0c0-.73.03-1.46,0-2.18-.04-.9-.1-1.81-.22-2.7-.19-1.45-1.27-2.59-2.67-2.85-.63-.12-1.28-.2-1.93-.21-1.97-.04-3.94-.06-5.9-.04-.92.01-1.85.08-2.75.25-1.42.27-2.39,1.13-2.68,2.58-.17.84-.24,1.71-.26,2.56-.04,1.97-.03,3.94,0,5.91,0,.76.06,1.52.25,2.27.35,1.36,1.14,2.29,2.52,2.59.83.18,1.7.26,2.56.27,1.88.04,3.76.04,5.64,0,.81-.01,1.63-.08,2.43-.23,1.37-.26,2.33-1.06,2.7-2.44.12-.44.19-.91.21-1.37.07-1.47.11-2.94.16-4.42Z"/>
  <path class="cls-1" d="m9.94,15.13c-2.87,0-5.13-2.25-5.14-5.12,0-2.87,2.26-5.13,5.08-5.17,3.06-.05,5.23,2.53,5.2,5.16-.03,2.87-2.27,5.13-5.14,5.14Zm-.01-8.5c-1.89,0-3.36,1.49-3.36,3.39,0,1.83,1.5,3.29,3.37,3.29,1.86,0,3.37-1.5,3.36-3.33-.01-1.87-1.5-3.36-3.37-3.35Z"/>
  <path class="cls-1" d="m16.52,4.6c0,.63-.57,1.22-1.19,1.22-.64,0-1.22-.58-1.22-1.22,0-.63.58-1.21,1.21-1.21.62,0,1.2.58,1.21,1.21Z"/>
</svg>