<?xml version="1.0" encoding="UTF-8"?>
<svg id="Layer_1" data-name="Layer 1" xmlns="http://www.w3.org/2000/svg" viewBox="0 0 69.87 69.87">
  <defs>
    <style>
      .cls-1 {
        fill: #fff;
        stroke-width: 0px;
      }

      .cls-2 {
        fill: none;
        stroke: #fff;
        stroke-miterlimit: 10;
        stroke-width: 4px;
      }
    </style>
  </defs>
  <path class="cls-1" d="m38.47,22.93c2.89-1.56,5.77-2.16,8.87-1.71,6.69.97,12.14,7,12.24,13.74.08,5.54.03,11.09.03,16.64,0,1.52-.71,2.26-2.21,2.27-2.42.03-4.85.02-7.27,0-1.36-.01-2.11-.83-2.11-2.27,0-4.26.01-8.52.02-12.78,0-1.67-.03-3.31-1.3-4.63-1.33-1.38-3.41-1.91-5.16-1.26-1.82.68-3.14,2.43-3.16,4.38-.04,3.78-.01,7.56-.02,11.35,0,1.03.02,2.06,0,3.08-.03,1.34-.69,2.07-2.03,2.1-2.53.05-5.07.04-7.6,0-1.29-.02-1.97-.83-1.97-2.28-.02-3.31,0-6.61,0-9.92,0-5.99,0-11.97.01-17.96,0-2.01.62-2.63,2.62-2.63,2.09,0,4.19.03,6.28-.02,1.36-.04,2.39.34,2.77,1.89Zm17.23,27.02c.02-.32.05-.53.05-.74,0-4.51.06-9.03-.01-13.54-.07-4.38-2.02-7.75-5.98-9.65-3.94-1.88-7.78-1.39-11.27,1.31-.29.22-.54.5-.84.71-1.4.94-2.99.17-3.11-1.51-.04-.49,0-.99,0-1.49h-3.77v24.87h3.76c0-.67,0-1.25,0-1.83,0-3.63-.08-7.27.04-10.9.17-4.91,4.22-8.58,9.07-8.41,4.64.17,8.33,4.22,8.28,9.01-.04,3.85-.02,7.71-.01,11.56,0,.2.08.41.12.61h3.69Z"/>
  <path class="cls-1" d="m22.98,37.43c0,4.62,0,9.25,0,13.87,0,1.89-.68,2.57-2.6,2.57-2.24,0-4.48,0-6.71-.01-1.52,0-2.3-.75-2.31-2.29,0-6.35,0-12.69,0-19.04,0-3.01,0-6.02.01-9.02,0-1.79.7-2.46,2.47-2.45,2.2,0,4.4-.01,6.6,0,1.88,0,2.53.67,2.53,2.51,0,4.62,0,9.25,0,13.87Zm-3.99,12.51v-24.92h-3.66v24.92h3.66Z"/>
  <path class="cls-1" d="m17.23,19.14c-3.28-.03-5.89-2.61-5.84-5.75.06-3.34,2.58-5.83,5.89-5.82,3.07,0,5.74,2.72,5.7,5.82-.04,3.13-2.68,5.78-5.76,5.75Zm1.85-5.75c.01-1.09-.83-1.92-1.94-1.92-1.06,0-1.87.81-1.87,1.86,0,1.04.8,1.9,1.82,1.95,1.05.04,1.98-.83,2-1.89Z"/>
  <rect class="cls-2" x="2" y="2" width="65.87" height="65.87"/>
</svg>