<?xml version="1.0" encoding="UTF-8"?>
<svg id="Layer_1" data-name="Layer 1" xmlns="http://www.w3.org/2000/svg" viewBox="0 0 309.31 290.86">
  <defs>
    <style>
      .cls-1 {
        fill: #fff;
        stroke-width: 0px;
      }
    </style>
  </defs>
  <path class="cls-1" d="m303.38,128.53c-3.99-1.06-6.41-2.68-5.8-7.15.05-.34-.2-.71-.35-1.18-1.67,0-3.28,0-5.32,0,2.89,25.04-.7,48.94-10.65,71.81-9.93,22.83-25.04,41.62-45.16,56.31-20.19,14.74-42.75,23.56-67.6,25.99-34.76,3.39-66.87-4.75-94.88-25.56C30.64,216.82,12.7,173.2,16.71,120.24c-1.79,0-3.39,0-5.13,0-.15,1.21-.5,2.28-.38,3.3.28,2.46-1.04,3.26-3.13,3.94-8.42,2.73-8.38,2.79-7.9,11.65.12,2.11.68,3.67,3.08,4.18,1.97.42,3.95,1.03,5.75,1.92.88.44,1.88,1.65,1.96,2.58,1.34,16.83,5.47,32.94,12.55,48.24,1.34,2.9,1.22,4.63-1.02,6.95-4.86,5.06-4.71,5.2-1.12,11.39q2.48,4.28,7.21,3.32c1.23-.25,2.53-.3,3.69-.73,1.91-.71,2.88,0,3.97,1.59,9.71,14.18,21.63,26.2,35.77,35.97,1.83,1.26,2.2,2.37,1.78,4.45-1.78,8.64-1.69,8.63,6.16,12.65,1.92.99,3.51,1.21,5.13-.63,1.27-1.44,2.91-2.54,4.28-3.9,1.02-1.01,1.91-1.22,3.28-.56,15.66,7.51,32.18,11.98,49.47,13.43,2.39.2,3.2,1.2,3.85,3.26,2.46,7.68,2.53,7.56,10.65,7.64,2.91.03,4.81-.66,5.36-3.81.28-1.6,1.1-3.09,1.5-4.68.38-1.52,1.14-2.01,2.75-2.29,9.78-1.72,19.65-3.17,29.23-5.67,7.78-2.03,15.2-5.41,23.01-8.27.47.4,1.21,1.01,1.93,1.65,6.45,5.72,6.42,5.67,13.79,1.2,2.21-1.34,3.18-2.85,2.25-5.46-.55-1.53-.52-3.26-1.04-4.8-.67-2-.06-3.09,1.64-4.27,13.8-9.56,25.56-21.21,35.09-35.04,1.55-2.26,2.96-2.61,5.46-2.03,8.03,1.86,7.98,1.72,12.13-5.59,1.4-2.47,1.5-4.39-.78-6.35-1.31-1.12-2.24-2.67-3.51-3.85-1.35-1.24-1.43-2.29-.63-3.99,6.77-14.36,11.19-29.45,12.58-45.25.43-4.91,2.07-6.99,6.67-8.09,5.33-1.28,5.25-1.63,5.25-7.4,0-6.46.07-6.74-5.93-8.34Z"/>
  <path class="cls-1" d="m166.67.54c-3.88-.19-7.45-.36-11.11-.54-.21,3.99-.4,7.5-.59,11.09,3.92.21,7.44.4,11.16.6.19-3.86.36-7.38.54-11.15Z"/>
  <path class="cls-1" d="m153.57,262.2c-3.39-.19-6.83-.39-10.7-.61-.2,3.94-.39,7.5-.57,11.16,3.93.21,7.43.4,11.27.6,0-3.91,0-7.42,0-11.15Z"/>
  <path class="cls-1" d="m237.98,244.86c-2.29-3.23-4.34-6.11-6.49-9.14-3.16,2.24-6.09,4.32-9.14,6.49,2.28,3.21,4.36,6.15,6.48,9.14,3.24-2.3,6.18-4.39,9.15-6.5Z"/>
  <path class="cls-1" d="m27.12,136.01c.66,0,1.82-1.05,1.87-1.68.2-2.96.09-5.93.09-9.33-2.89-.16-5.94-.41-8.98-.41-.63,0-1.76.96-1.79,1.53-.18,3.12-.08,6.26-.08,9.5,2.98.16,5.94.42,8.9.38Z"/>
  <path class="cls-1" d="m269.19,62.31c-2.3-3.22-4.42-6.18-6.53-9.14-3.36,2.39-6.16,4.39-9.11,6.49,2.24,3.16,4.34,6.11,6.48,9.14,3.14-2.22,5.97-4.22,9.16-6.48Z"/>
  <path class="cls-1" d="m86.63,31.1c-2.22-3.13-4.32-6.09-6.49-9.15-3.16,2.26-6.04,4.31-9.12,6.51,2.23,3.16,4.3,6.09,6.45,9.13,3.25-2.31,6.14-4.36,9.16-6.5Z"/>
  <path class="cls-1" d="m291.12,137.71c-3.78-.18-7.28-.34-11.17-.53,0,3.8,0,7.37,0,11.27,3.5,0,6.99,0,10.66,0,.17-3.53.33-7.02.51-10.75Z"/>
  <path class="cls-1" d="m39.81,210.99c2.25,3.19,4.29,6.09,6.45,9.16,3.13-2.22,6.08-4.3,9.16-6.48-2.24-3.16-4.28-6.04-6.47-9.14-3.13,2.22-6.07,4.3-9.13,6.47Z"/>
  <path class="cls-1" d="m268.92,121.26c3.54-.65,6.73-1.24,10.12-1.86-.63-3.45-1.21-6.64-1.83-10.06-3.42.6-6.61,1.16-10.07,1.77.6,3.42,1.16,6.61,1.78,10.15Z"/>
  <path class="cls-1" d="m139.05,22.19c-.63-3.5-1.2-6.67-1.81-10.07-3.47.62-6.65,1.18-10.15,1.81.68,3.59,1.28,6.76,1.91,10.12,3.48-.64,6.65-1.22,10.05-1.85Z"/>
  <path class="cls-1" d="m41.88,162.19c-.65-3.51-1.25-6.78-1.88-10.15-3.49.66-6.68,1.26-10.05,1.89.63,3.46,1.2,6.64,1.82,10.05,3.5-.62,6.69-1.18,10.12-1.79Z"/>
  <path class="cls-1" d="m241.93,46.28c-2.73-2.41-5.2-4.6-7.76-6.87-2.38,2.72-4.56,5.2-6.8,7.76,2.68,2.38,5.1,4.52,7.69,6.82,2.32-2.6,4.47-5.01,6.87-7.7Z"/>
  <path class="cls-1" d="m181.85,259.35c-.64-3.47-1.22-6.62-1.85-10.05-3.49.63-6.65,1.19-10.08,1.81.61,3.44,1.17,6.62,1.8,10.14,3.59-.67,6.75-1.26,10.13-1.9Z"/>
  <path class="cls-1" d="m244.84,224.1c2.36-2.66,4.52-5.08,6.86-7.71-2.65-2.37-5.11-4.58-7.68-6.88-2.37,2.67-4.54,5.1-6.86,7.71,2.58,2.31,5,4.48,7.68,6.88Z"/>
  <path class="cls-1" d="m81.62,226.21c-2.65-2.37-5.08-4.55-7.68-6.88-2.24,2.49-4.42,4.92-6.89,7.67,2.65,2.38,5.08,4.56,7.69,6.91,2.29-2.56,4.52-5.05,6.88-7.69Z"/>
  <path class="cls-1" d="m71.8,56.08c-2.64-2.36-5.12-4.57-7.69-6.87-2.38,2.69-4.54,5.12-6.86,7.74,2.64,2.35,5.1,4.55,7.69,6.86,2.41-2.71,4.56-5.15,6.85-7.72Z"/>
  <path class="cls-1" d="m214.15,37.54c-2.92-1.59-5.58-3.03-8.34-4.54-1.59,2.91-3.01,5.5-4.53,8.3,2.78,1.54,5.36,2.98,8.31,4.61,1.59-2.92,3.04-5.58,4.56-8.37Z"/>
  <path class="cls-1" d="m253.57,196.33c1.53-2.77,2.96-5.35,4.6-8.32-2.94-1.61-5.58-3.06-8.37-4.59-1.6,2.98-3.03,5.62-4.51,8.37,2.91,1.59,5.49,3.01,8.28,4.54Z"/>
  <path class="cls-1" d="m63.72,81.54c-2.92-1.6-5.52-3.02-8.33-4.55-1.56,2.83-3.02,5.48-4.58,8.31,2.89,1.59,5.48,3.02,8.31,4.58,1.56-2.83,3.03-5.49,4.6-8.34Z"/>
  <path class="cls-1" d="m107.69,231.99c-2.88-1.58-5.52-3.03-8.33-4.57-1.58,2.89-3.03,5.55-4.54,8.33,2.92,1.61,5.52,3.04,8.33,4.59,1.61-2.95,3.02-5.54,4.55-8.35Z"/>
  <path class="cls-1" d="m116.99,37.23c-1.28-2.99-2.44-5.69-3.73-8.71-3.11,1.35-5.83,2.53-8.74,3.8,1.3,3,2.5,5.76,3.78,8.7,3.07-1.34,5.77-2.52,8.69-3.79Z"/>
  <path class="cls-1" d="m58.85,182.83c-1.34-3.09-2.52-5.81-3.77-8.7-2.97,1.28-5.76,2.48-8.71,3.76,1.29,2.98,2.49,5.77,3.77,8.72,3.08-1.34,5.86-2.54,8.71-3.77Z"/>
  <path class="cls-1" d="m204.44,241.01c-1.34-3.08-2.51-5.79-3.78-8.71-3,1.29-5.77,2.49-8.72,3.76,1.34,3.06,2.55,5.83,3.8,8.7,3-1.29,5.72-2.47,8.69-3.75Z"/>
  <path class="cls-1" d="m262.59,95.43c-1.28-3-2.44-5.7-3.74-8.73-3.11,1.34-5.81,2.51-8.72,3.76,1.29,2.99,2.49,5.77,3.76,8.72,2.98-1.29,5.76-2.48,8.7-3.75Z"/>
  <path class="cls-1" d="m78.34,197.87c-1.82-2.47-3.45-4.69-5.2-7.05-2.41,1.76-4.63,3.38-7.06,5.15,1.75,2.39,3.42,4.66,5.2,7.08,2.5-1.83,4.71-3.45,7.06-5.17Z"/>
  <path class="cls-1" d="m132.25,231.77c-2.99-.81-5.62-1.53-8.4-2.28-.83,2.95-1.55,5.5-2.34,8.31,2.85.82,5.48,1.59,8.38,2.42.8-2.88,1.56-5.59,2.35-8.45Z"/>
  <path class="cls-1" d="m230.64,75.45c1.88,2.55,3.51,4.77,5.19,7.06,2.4-1.76,4.57-3.35,7.05-5.16-1.81-2.49-3.44-4.73-5.17-7.12-2.42,1.79-4.7,3.47-7.07,5.22Z"/>
  <path class="cls-1" d="m258.02,161.25c-2.9-.83-5.46-1.57-8.37-2.41-.83,2.98-1.57,5.62-2.37,8.44,2.89.81,5.54,1.55,8.39,2.34.81-2.89,1.55-5.52,2.35-8.37Z"/>
  <path class="cls-1" d="m187.49,35.48c-2.97-.83-5.61-1.57-8.45-2.37-.79,2.87-1.53,5.52-2.32,8.4,2.91.81,5.53,1.54,8.36,2.32.83-2.88,1.56-5.44,2.4-8.36Z"/>
  <path class="cls-1" d="m220.88,219.88c-1.82-2.48-3.48-4.74-5.2-7.07-2.46,1.81-4.62,3.4-7.05,5.19,1.84,2.51,3.46,4.73,5.16,7.07,2.45-1.79,4.67-3.42,7.09-5.18Z"/>
  <path class="cls-1" d="m100.34,55.33c-1.75-2.4-3.36-4.62-5.17-7.1-2.51,1.86-4.72,3.5-7.05,5.23,1.78,2.44,3.41,4.66,5.15,7.05,2.38-1.74,4.6-3.37,7.08-5.18Z"/>
  <path class="cls-1" d="m61.69,106.02c-2.9-.8-5.54-1.54-8.4-2.33-.82,2.94-1.55,5.57-2.34,8.39,2.96.83,5.59,1.56,8.39,2.35.82-2.94,1.56-5.58,2.34-8.41Z"/>
  <path class="cls-1" d="m65.01,128.43h-8.16c0,2.5,0,4.96,0,7.64,2.56.13,4.93.25,7.68.4.17-2.82.31-5.28.47-8.03Z"/>
  <path class="cls-1" d="m154.29,226.52h-8.01c-.14,2.49-.28,4.93-.44,7.68,2.82,0,5.35,0,8,0,.14-2.47.28-4.93.44-7.68Z"/>
  <path class="cls-1" d="m155.03,46.84h7.7c.14-2.5.28-5.03.43-7.79-2.9,0-5.37,0-8.13,0,0,2.72,0,5.16,0,7.79Z"/>
  <path class="cls-1" d="m252.4,137.2h-8.09c0,2.58,0,5.11,0,7.81,2.6,0,4.98,0,7.67,0,.14-2.56.28-5.06.43-7.81Z"/>
  <path class="cls-1" d="m216.2,71.29c1.83-2.12,3.46-4,5.27-6.09-2.07-1.8-4-3.47-6.11-5.3-1.87,2.16-3.53,4.08-5.28,6.11,2.11,1.82,4,3.45,6.12,5.28Z"/>
  <path class="cls-1" d="m83.02,69.69c-1.83,2.11-3.46,3.99-5.29,6.11,2.14,1.83,4.03,3.44,6.13,5.24,1.79-2.07,3.46-4,5.28-6.1-2.14-1.83-4.07-3.49-6.11-5.24Z"/>
  <path class="cls-1" d="m98.88,207.29c-2.09-1.8-4.03-3.47-6.11-5.25-1.83,2.13-3.49,4.06-5.26,6.12,2.14,1.84,4.08,3.5,6.11,5.25,1.88-2.19,3.5-4.07,5.25-6.11Z"/>
  <path class="cls-1" d="m231.21,197.49c-2.11-1.8-4.05-3.47-6.1-5.22-1.83,2.12-3.46,4-5.26,6.08,2.04,1.76,3.98,3.44,6.12,5.29,1.91-2.24,3.51-4.12,5.24-6.16Z"/>
  <path class="cls-1" d="m196.28,65.26c1.2-2.26,2.27-4.27,3.41-6.41-7.94-4.37-5.76-4.9-9.72,2.67-.04.07,0,.18.03.49,1.98,1.02,4.07,2.1,6.28,3.25Z"/>
  <path class="cls-1" d="m73.1,97.99c2.29,1.2,4.3,2.25,6.55,3.43,1.19-2.24,2.29-4.31,3.48-6.55-2.22-1.17-4.3-2.27-6.56-3.47-1.22,2.33-2.31,4.39-3.46,6.59Z"/>
  <path class="cls-1" d="m225.83,178.45c2.33,1.2,4.41,2.28,6.6,3.41,1.22-2.31,2.27-4.32,3.43-6.52-2.26-1.2-4.27-2.27-6.53-3.48-1.2,2.27-2.31,4.35-3.5,6.59Z"/>
  <path class="cls-1" d="m174.27,224.44c-.54-2.62-1-4.82-1.48-7.13-2.51.45-4.66.84-7.1,1.28.4,2.44.77,4.67,1.22,7.34,2.69-.55,4.97-1.01,7.36-1.49Z"/>
  <path class="cls-1" d="m119.25,211.48c-2.3-1.22-4.31-2.29-6.53-3.46-1.2,2.24-2.27,4.25-3.51,6.56,2.31,1.21,4.33,2.27,6.57,3.45,1.21-2.29,2.3-4.36,3.46-6.55Z"/>
  <path class="cls-1" d="m136.09,55.98c2.5-.43,4.75-.82,7.31-1.26-.52-2.68-.94-4.89-1.41-7.33-2.63.53-4.92.99-7.26,1.46.5,2.62.91,4.77,1.37,7.13Z"/>
  <path class="cls-1" d="m65.28,149.1c.48,2.57.88,4.78,1.34,7.27,2.58-.47,4.86-.88,7.3-1.33-.54-2.67-.99-4.87-1.47-7.23-2.46.44-4.61.83-7.18,1.29Z"/>
  <path class="cls-1" d="m240.26,117.29c-1.6.27-3.19.61-5.16.99.49,2.58.91,4.8,1.37,7.27,2.59-.51,4.89-.96,7.26-1.43-.48-2.52-.89-4.68-1.33-6.94-.84.04-1.5,0-2.14.11Z"/>
  <path class="cls-1" d="m83.32,163.55c-2.14.94-4.12,1.8-6.26,2.74.97,2.23,1.82,4.2,2.72,6.27,2.23-.97,4.14-1.8,6.26-2.73-.93-2.14-1.79-4.12-2.72-6.28Z"/>
  <path class="cls-1" d="m138.35,210.99c-2.32-.59-4.39-1.11-6.57-1.66-.62,2.38-1.15,4.37-1.71,6.52,2.29.62,4.29,1.15,6.62,1.78.6-2.39,1.1-4.4,1.66-6.64Z"/>
  <path class="cls-1" d="m178.87,57.44c-2.31-.62-4.32-1.15-6.53-1.74-.61,2.24-1.15,4.24-1.8,6.59,2.36.61,4.36,1.13,6.62,1.71.6-2.3,1.13-4.37,1.7-6.57Z"/>
  <path class="cls-1" d="m231.94,107.01c-1-2.23-1.88-4.19-2.81-6.26-2.24.99-4.16,1.84-6.2,2.74.95,2.18,1.81,4.16,2.73,6.25,2.23-.97,4.14-1.8,6.28-2.73Z"/>
  <path class="cls-1" d="m190.4,211.37c-.96-2.22-1.79-4.13-2.71-6.27-2.22.95-4.2,1.8-6.31,2.7,1,2.27,1.84,4.19,2.75,6.25,2.13-.91,4.05-1.73,6.28-2.68Z"/>
  <path class="cls-1" d="m127.57,65.45c-.98-2.24-1.81-4.15-2.71-6.22-2.17.93-4.07,1.75-6.21,2.68.87,2.1,1.66,4.02,2.62,6.33,2.3-1.02,4.25-1.89,6.3-2.8Z"/>
  <path class="cls-1" d="m227.16,159.38c2.44.62,4.44,1.13,6.58,1.68.61-2.44,1.11-4.44,1.64-6.58-2.26-.6-4.2-1.12-6.57-1.75-.59,2.38-1.11,4.46-1.65,6.66Z"/>
  <path class="cls-1" d="m81.87,113.94c-2.36-.59-4.44-1.12-6.63-1.67-.63,2.43-1.12,4.36-1.68,6.53,2.22.59,4.23,1.13,6.56,1.76.64-2.42,1.17-4.43,1.75-6.62Z"/>
  <path class="cls-1" d="m159.68,60.57h-5.9c0,2.06,0,4.02,0,6.09h5.9c0-2.01,0-3.96,0-6.09Z"/>
  <path class="cls-1" d="m224.55,142c2.07,0,3.95,0,5.99,0,0-2.07,0-3.97,0-6.14h-5.99c0,2.09,0,4.05,0,6.14Z"/>
  <path class="cls-1" d="m155.23,212.55c0-1.92,0-3.87,0-5.94-2.05,0-3.86,0-5.82,0-.89,6.5-.44,6.96,5.82,5.94Z"/>
  <path class="cls-1" d="m94.91,184.32c1.8-1.31,3.39-2.47,5.13-3.74-1.36-1.81-2.55-3.38-3.81-5.06-1.75,1.29-3.29,2.41-5.02,3.68,1.21,1.68,2.31,3.21,3.69,5.12Z"/>
  <path class="cls-1" d="m84.42,131.35h-5.93c0,1.98,0,3.85,0,6.06,2.08,0,3.87,0,5.93,0,0-1.99,0-3.93,0-6.06Z"/>
  <path class="cls-1" d="m106.83,77.13c1.32,1.79,2.45,3.32,3.75,5.07,1.77-1.34,3.38-2.56,5.05-3.83-1.37-1.83-2.52-3.35-3.75-4.99-1.79,1.33-3.37,2.5-5.05,3.75Z"/>
  <path class="cls-1" d="m202.18,196.18c-1.4-1.82-2.59-3.37-3.86-5.03-1.77,1.32-3.28,2.44-5,3.73,1.32,1.76,2.48,3.33,3.76,5.05,1.8-1.32,3.37-2.48,5.09-3.75Z"/>
  <path class="cls-1" d="m217.78,94.02c-1.39-1.83-2.54-3.34-3.79-4.99-1.79,1.31-3.37,2.47-5.09,3.74,1.4,1.82,2.6,3.38,3.87,5.04,1.82-1.38,3.38-2.55,5.01-3.78Z"/>
  <path class="cls-1" d="m170.91,204.78c-.37-1.92-.7-3.6-1.08-5.59-2.11.43-3.86.78-5.76,1.17.51,2.12.92,3.85,1.36,5.68,2-.46,3.65-.84,5.48-1.26Z"/>
  <path class="cls-1" d="m209.55,180.16c-1.55-1.32-2.93-2.49-4.43-3.77-1.29,1.49-2.47,2.87-3.81,4.42,1.53,1.3,2.96,2.5,4.46,3.77,1.31-1.54,2.44-2.85,3.78-4.43Z"/>
  <path class="cls-1" d="m139.1,74.05c1.85-.34,3.52-.64,5.65-1.03-.37-2-.69-3.75-1.06-5.7-1.99.41-3.72.78-5.65,1.18.37,1.93.68,3.59,1.06,5.56Z"/>
  <path class="cls-1" d="m91.98,151.91c-.44-2.02-.82-3.73-1.23-5.57-2.02.43-3.66.78-5.53,1.17.35,1.89.65,3.54,1.04,5.65,2.06-.45,3.78-.83,5.72-1.25Z"/>
  <path class="cls-1" d="m114.74,187.26c-1.48-1.28-2.78-2.39-4.39-3.77-1.37,1.61-2.52,2.95-3.78,4.43,1.57,1.34,2.92,2.5,4.43,3.79,1.31-1.56,2.46-2.92,3.74-4.45Z"/>
  <path class="cls-1" d="m103.8,96.93c1.25-1.43,2.43-2.78,3.84-4.39-1.59-1.38-2.95-2.55-4.42-3.82-1.32,1.53-2.48,2.88-3.8,4.4,1.51,1.31,2.86,2.49,4.38,3.81Z"/>
  <path class="cls-1" d="m218.21,126.96c1.99-.41,3.72-.78,5.59-1.17-.39-1.98-.74-3.73-1.12-5.64-1.98.42-3.72.79-5.69,1.21.42,1.95.8,3.67,1.22,5.6Z"/>
  <path class="cls-1" d="m194.19,86c1.56,1.32,2.91,2.47,4.44,3.77,1.3-1.51,2.46-2.85,3.77-4.37-1.54-1.33-2.87-2.49-4.38-3.8-1.3,1.49-2.42,2.77-3.83,4.4Z"/>
  <path class="cls-1" d="m126.9,195.01c.83-1.65,1.57-3.14,2.39-4.77-1.66-.87-3.06-1.61-4.68-2.46-.85,1.69-1.59,3.16-2.41,4.78,1.7.89,3.11,1.63,4.7,2.45Z"/>
  <path class="cls-1" d="m96.14,108.99c1.6.87,3.01,1.64,4.71,2.57.9-1.76,1.67-3.23,2.48-4.82-1.73-.89-3.14-1.62-4.72-2.44-.88,1.66-1.62,3.06-2.48,4.68Z"/>
  <path class="cls-1" d="m210.36,169c.85-1.63,1.59-3.05,2.46-4.72-1.65-.86-3.12-1.64-4.73-2.48-.85,1.64-1.59,3.05-2.46,4.74,1.65.86,3.12,1.63,4.73,2.47Z"/>
  <path class="cls-1" d="m96.76,165.57c1.76-.8,3.27-1.49,4.87-2.22-.8-1.77-1.46-3.22-2.2-4.87-1.77.81-3.27,1.5-4.87,2.23.77,1.7,1.4,3.08,2.2,4.85Z"/>
  <path class="cls-1" d="m182.09,78.3c-.89,1.71-1.63,3.11-2.47,4.74,1.65.87,3.06,1.61,4.74,2.5.89-1.74,1.62-3.15,2.44-4.75-1.65-.87-3.12-1.65-4.71-2.48Z"/>
  <path class="cls-1" d="m178.52,196.6c1.8-.81,3.25-1.46,4.89-2.2-.8-1.73-1.49-3.23-2.26-4.89-1.78.83-3.23,1.5-4.84,2.24.77,1.69,1.45,3.2,2.2,4.85Z"/>
  <path class="cls-1" d="m209.55,114.85c1.77-.84,3.26-1.55,4.86-2.31-.76-1.67-1.39-3.04-2.2-4.81-1.74.81-3.23,1.51-4.84,2.26.79,1.77,1.44,3.21,2.18,4.87Z"/>
  <path class="cls-1" d="m125.58,79.06c.83,1.76,1.51,3.19,2.25,4.74,1.73-.8,3.18-1.48,4.81-2.23-.74-1.65-1.4-3.11-2.21-4.92-1.77.88-3.26,1.62-4.84,2.41Z"/>
  <path class="cls-1" d="m105.71,170.63c1.12,1.46,2.03,2.64,3.01,3.91,1.43-1.08,2.63-2,3.95-3-1.07-1.39-2.04-2.64-3.06-3.95-1.44,1.12-2.61,2.03-3.9,3.04Z"/>
  <path class="cls-1" d="m116.6,90.91c1.07,1.39,1.94,2.52,3.03,3.93,1.43-1.14,2.59-2.06,3.89-3.1-1.14-1.44-2.06-2.59-3.06-3.84-1.45,1.13-2.62,2.04-3.86,3.01Z"/>
  <path class="cls-1" d="m196.33,101.77c1.03,1.36,1.93,2.56,2.96,3.92,1.34-.99,2.55-1.88,4-2.96-1.16-1.51-2.07-2.69-3.05-3.96-1.44,1.11-2.57,1.98-3.91,3Z"/>
  <path class="cls-1" d="m142.99,189.95c-1.63-.45-3.07-.84-4.68-1.28-.46,1.69-.85,3.14-1.29,4.76,1.67.43,3.03.77,4.81,1.23.43-1.75.77-3.12,1.16-4.71Z"/>
  <path class="cls-1" d="m102.39,120.42c-1.66-.39-3.09-.73-4.7-1.11-.43,1.72-.78,3.14-1.17,4.7,1.77.43,3.19.78,4.76,1.16.42-1.77.74-3.14,1.12-4.74Z"/>
  <path class="cls-1" d="m212.53,149.38c-1.61-.44-2.98-.82-4.73-1.31-.48,1.72-.88,3.16-1.34,4.81,1.79.42,3.24.75,4.8,1.12.47-1.7.84-3.06,1.27-4.62Z"/>
  <path class="cls-1" d="m170.64,84.61c.46-1.66.86-3.1,1.31-4.74-1.65-.41-3.03-.75-4.75-1.18-.48,1.73-.86,3.09-1.31,4.69,1.65.43,3.09.8,4.75,1.23Z"/>
  <path class="cls-1" d="m189.4,178.5c-1.36,1.02-2.56,1.92-3.98,2.99,1.04,1.35,1.96,2.54,3.03,3.93,1.32-1.01,2.52-1.93,3.91-2.99-1.01-1.34-1.91-2.54-2.96-3.93Z"/>
  <path class="cls-1" d="m155.03,186.83h-4.23c0,1.49,0,2.78,0,4.24,1.46,0,2.76,0,4.23,0,0-1.41,0-2.77,0-4.24Z"/>
  <path class="cls-1" d="m124.2,176.59c-1.21-.99-2.3-1.88-3.52-2.88-1.03,1.22-1.88,2.23-2.93,3.47,1.3,1.06,2.33,1.89,3.55,2.88.99-1.19,1.89-2.26,2.91-3.48Z"/>
  <path class="cls-1" d="m104.34,133.06h-4.36c0,1.47,0,2.69,0,4.18h4.36v-4.18Z"/>
  <path class="cls-1" d="m204.44,140.29h4.45c0-1.47,0-2.77,0-4.29-1.58,0-2.79,0-4.19,0-.09,1.46-.17,2.82-.26,4.29Z"/>
  <path class="cls-1" d="m111.09,103.53c1.29,1.06,2.35,1.93,3.48,2.86,1.09-1.32,1.93-2.33,2.89-3.48-1.17-1.01-2.17-1.88-3.48-3.01-1.05,1.32-1.92,2.42-2.88,3.63Z"/>
  <path class="cls-1" d="m158.21,86.45c0-1.56,0-2.77,0-4.24-1.52,0-2.88,0-4.29,0,0,1.51,0,2.81,0,4.24h4.29Z"/>
  <path class="cls-1" d="m195,173.39c1.12-1.38,1.99-2.46,2.91-3.59-1.29-1.03-2.32-1.86-3.55-2.84-.99,1.21-1.87,2.29-2.85,3.48,1.16.98,2.18,1.84,3.48,2.95Z"/>
  <path class="cls-1" d="m188.26,99.62c1.09-1.3,1.93-2.31,2.89-3.46-1.2-1.03-2.24-1.94-3.42-2.95-1.03,1.19-1.88,2.19-2.99,3.48,1.32,1.1,2.37,1.97,3.52,2.93Z"/>
  <path class="cls-1" d="m194.69,159.33c1.39.68,2.47,1.21,3.73,1.82.68-1.36,1.25-2.5,1.87-3.76-1.4-.68-2.5-1.21-3.75-1.82-.65,1.33-1.22,2.47-1.85,3.76Z"/>
  <path class="cls-1" d="m203.36,124.72c-1.48.33-2.72.61-4.07.91.29,1.47.52,2.64.79,4.04,1.54-.34,2.71-.6,4-.89-.24-1.34-.43-2.45-.72-4.07Z"/>
  <path class="cls-1" d="m173.4,94.6c1.36.69,2.43,1.23,3.68,1.87.65-1.25,1.2-2.32,1.94-3.73-1.37-.68-2.45-1.22-3.78-1.88-.67,1.35-1.22,2.48-1.84,3.74Z"/>
  <path class="cls-1" d="m129.96,180.58c1.41.69,2.5,1.23,3.79,1.87.65-1.35,1.2-2.49,1.8-3.72-1.34-.69-2.35-1.2-3.74-1.92-.68,1.39-1.24,2.53-1.86,3.77Z"/>
  <path class="cls-1" d="m143.47,91.88c1.47-.32,2.72-.59,4.1-.89-.36-1.52-.64-2.7-.95-4.04-1.35.29-2.47.54-4.01.87.31,1.44.56,2.62.86,4.05Z"/>
  <path class="cls-1" d="m166.28,185.46c-.24-1.35-.45-2.52-.71-3.98-1.49.31-2.74.56-4.08.84.3,1.46.55,2.64.84,4.05,1.4-.32,2.57-.59,3.96-.91Z"/>
  <path class="cls-1" d="m105.68,148.52c1.43-.29,2.61-.53,4.06-.82-.28-1.32-.52-2.49-.83-3.96-1.39.26-2.63.5-4.04.76.31,1.51.54,2.68.81,4.01Z"/>
  <path class="cls-1" d="m114.21,113.99c-1.37-.68-2.45-1.22-3.64-1.82-.66,1.33-1.21,2.43-1.84,3.7,1.27.65,2.42,1.23,3.73,1.9.63-1.37,1.17-2.53,1.74-3.78Z"/>
  <path class="cls-1" d="m116.64,155.85c-.54-1.21-1.01-2.24-1.58-3.52-1.28.61-2.35,1.11-3.52,1.66.63,1.28,1.12,2.29,1.67,3.4,1.18-.54,2.13-.97,3.43-1.55Z"/>
  <path class="cls-1" d="m171.79,179.59c1.27-.6,2.29-1.09,3.49-1.66-.59-1.21-1.11-2.27-1.67-3.43-1.24.58-2.19,1.02-3.43,1.6.59,1.27,1.06,2.28,1.62,3.49Z"/>
  <path class="cls-1" d="m109.11,127.49c1.28.33,2.37.6,3.77.96.35-1.49.6-2.56.89-3.78-1.39-.32-2.47-.57-3.7-.85-.35,1.35-.63,2.43-.96,3.67Z"/>
  <path class="cls-1" d="m146.24,178.26c-1.34-.28-2.5-.52-3.75-.77-.33,1.34-.58,2.33-.89,3.58,1.3.31,2.44.59,3.74.91.34-1.4.6-2.48.9-3.71Z"/>
  <path class="cls-1" d="m193.97,120.95c1.21-.55,2.16-.98,3.45-1.56-.59-1.26-1.06-2.28-1.65-3.52-1.22.59-2.29,1.1-3.49,1.67.65,1.31,1.14,2.31,1.68,3.41Z"/>
  <path class="cls-1" d="m193.52,138.81h3.35c0-1.19,0-2.19,0-3.33-1.16,0-2.16,0-3.52,0,.07,1.34.12,2.32.17,3.33Z"/>
  <path class="cls-1" d="m162.77,94.99c1.21.33,2.28.62,3.67,1,.35-1.44.6-2.51.91-3.78-1.35-.31-2.41-.55-3.71-.84-.31,1.29-.56,2.37-.86,3.62Z"/>
  <path class="cls-1" d="m195.25,148.68c1.37.28,2.46.5,3.69.75.32-1.33.58-2.41.86-3.61-1.28-.32-2.29-.58-3.71-.94-.32,1.44-.56,2.52-.84,3.8Z"/>
  <path class="cls-1" d="m133.72,95.39c.57,1.24,1.04,2.24,1.59,3.45,1.27-.58,2.34-1.07,3.52-1.61-.58-1.26-1.05-2.27-1.62-3.49-1.27.6-2.34,1.1-3.5,1.65Z"/>
  <path class="cls-1" d="m112.11,137.67h3.31c0-1.11,0-2.05,0-3.15h-3.31c0,1.03,0,1.96,0,3.15Z"/>
  <path class="cls-1" d="m124.61,161.68c-.85-1.06-1.49-1.85-2.27-2.81-.98.77-1.83,1.44-2.77,2.17.77,1,1.4,1.82,2.14,2.78.94-.69,1.76-1.3,2.9-2.13Z"/>
  <path class="cls-1" d="m178.9,171.54c1.01-.79,1.82-1.43,2.73-2.16-.73-.98-1.35-1.82-2.09-2.81-.98.75-1.85,1.42-2.87,2.21.84,1.04,1.48,1.83,2.23,2.75Z"/>
  <path class="cls-1" d="m130.07,101.78c-1,.77-1.74,1.33-2.81,2.15.84,1.04,1.48,1.83,2.24,2.77.96-.74,1.75-1.35,2.76-2.14-.79-1-1.44-1.84-2.19-2.78Z"/>
  <path class="cls-1" d="m184.39,111.65c.84,1.07,1.48,1.89,2.21,2.81.98-.78,1.83-1.46,2.79-2.22-.82-1.03-1.45-1.84-2.18-2.75-.96.73-1.78,1.36-2.82,2.16Z"/>
  <path class="cls-1" d="m155.5,175.79c-1.15-.05-2.15-.1-3.26-.14v3.42c1.14,0,2.14,0,3.26,0v-3.28Z"/>
  <path class="cls-1" d="m156.66,94.24h-3.33v3.2c1.27,0,2.27,0,3.48,0-.05-1.17-.1-2.15-.15-3.2Z"/>
  <path class="cls-1" d="m128.23,165.74c.9.72,1.68,1.35,2.54,2.04.7-.83,1.25-1.48,2.03-2.41-.86-.74-1.65-1.42-2.55-2.2-.76.96-1.34,1.7-2.03,2.57Z"/>
  <path class="cls-1" d="m164.47,174.41c-.38-1.18-.66-2.05-.99-3.06-1.06.3-1.93.54-2.88.81.18,1.06.31,1.89.53,3.16,1.29-.35,2.23-.61,3.34-.91Z"/>
  <path class="cls-1" d="m119.71,145.61c-.24-.97-.48-1.91-.77-3.07-1.19.4-2.05.68-2.83.94-.08,3,1.17,3.38,3.6,2.13Z"/>
  <path class="cls-1" d="m176.16,108.03c.91.77,1.61,1.36,2.44,2.06.72-.8,1.33-1.5,2.17-2.44-.95-.79-1.66-1.38-2.55-2.12-.72.88-1.34,1.64-2.06,2.51Z"/>
  <path class="cls-1" d="m185.64,160.39c-.89-.73-1.67-1.37-2.55-2.1-.75.96-1.37,1.75-2.04,2.61.89.7,1.56,1.22,2.51,1.96.76-.9,1.35-1.61,2.08-2.47Z"/>
  <path class="cls-1" d="m123.34,112.89c.88.74,1.64,1.38,2.5,2.1.72-.86,1.32-1.57,2.14-2.54-1-.77-1.72-1.33-2.57-1.98-.72.84-1.32,1.54-2.07,2.42Z"/>
  <path class="cls-1" d="m189.97,130.74c1.1-.33,1.99-.59,3.02-.9-.22-1.04-.41-1.91-.64-3.03-1.19.27-2.14.49-3.19.73.29,1.16.5,1.97.81,3.19Z"/>
  <path class="cls-1" d="m145.43,101.89c1.06-.24,1.94-.45,3-.69-.25-1.14-.44-2.03-.68-3.12-1.06.24-1.96.44-3.24.73.35,1.18.62,2.06.93,3.09Z"/>
  <path class="cls-1" d="m136.97,168.15c.96.46,1.77.86,2.75,1.32.46-1,.84-1.81,1.25-2.7-.95-.48-1.7-.85-2.6-1.3-.46.89-.89,1.71-1.39,2.68Z"/>
  <path class="cls-1" d="m125.63,120.46c-.97-.46-1.71-.81-2.68-1.27-.44.95-.82,1.75-1.24,2.66.96.48,1.69.85,2.63,1.33.47-.98.85-1.78,1.3-2.72Z"/>
  <path class="cls-1" d="m122.64,153.33c.93-.43,1.61-.75,2.63-1.22-.48-1.02-.84-1.77-1.29-2.71-.95.45-1.77.84-2.74,1.3.53.99.96,1.79,1.41,2.64Z"/>
  <path class="cls-1" d="m168.58,169.85c.9-.48,1.7-.89,2.59-1.37-.51-.98-.9-1.73-1.37-2.64-.96.51-1.78.94-2.68,1.42.53.94.94,1.68,1.45,2.59Z"/>
  <path class="cls-1" d="m137.8,104.8c.47.98.83,1.74,1.27,2.66.98-.49,1.8-.89,2.73-1.35-.48-.95-.86-1.7-1.33-2.63-.95.47-1.76.87-2.66,1.32Z"/>
  <path class="cls-1" d="m172.04,105.17c-1.05-.51-1.87-.91-2.79-1.36-.45.99-.79,1.75-1.22,2.72.95.44,1.75.82,2.65,1.24.47-.9.82-1.56,1.37-2.59Z"/>
  <path class="cls-1" d="m186.35,119.97c-.96.5-1.68.88-2.41,1.25.35,2.38,1.31,3.07,3.69,1.32-.4-.81-.81-1.61-1.29-2.57Z"/>
  <path class="cls-1" d="m187.29,151.45c-.99-.48-1.72-.84-2.59-1.26-.48.86-.88,1.58-1.46,2.64,1.04.48,1.79.82,2.76,1.27.45-.93.84-1.72,1.29-2.65Z"/>
  <path class="cls-1" d="m173.91,163.54c.78-.66,1.41-1.2,2.09-1.78-.58-.75-1.05-1.36-1.62-2.1-.72.56-1.37,1.06-2.18,1.68.6.78,1.1,1.42,1.7,2.2Z"/>
  <path class="cls-1" d="m179.56,115.09c-.73.63-1.37,1.18-2.06,1.77.59.74,1.06,1.34,1.97,2.48.66-1.18,1.28-1.89,1.39-2.67.06-.43-.77-.97-1.3-1.58Z"/>
  <path class="cls-1" d="m186.77,144.27l-1.85-1.93c-.41.32-.82.63-1.24.95.47.77.94,1.54,1.42,2.32.56-.44,1.12-.89,1.67-1.33Z"/>
</svg>