<?xml version="1.0" encoding="UTF-8"?>
<svg id="Layer_1" data-name="Layer 1" xmlns="http://www.w3.org/2000/svg" viewBox="0 0 20 20">
  <defs>
    <style>
      .cls-1 {
        fill: #fff;
        stroke-width: 0px;
      }
    </style>
  </defs>
  <path class="cls-1" d="m10.44,0c2.31.03,4.69.98,6.64,2.93,2,2,2.98,4.45,2.93,7.27-.05,2.67-1.03,4.98-2.93,6.87-2,1.99-4.44,2.98-7.27,2.92-2.68-.05-4.99-1.03-6.88-2.93C.93,15.06-.05,12.62,0,9.79c.05-2.67,1.04-4.97,2.93-6.86C4.82,1.02,7.32,0,10.44,0Zm8.6,10.06c-.03-2.46-.85-4.56-2.52-6.3-1.69-1.76-3.78-2.71-6.22-2.78-2.51-.08-4.7.76-6.52,2.5-1.77,1.69-2.72,3.79-2.79,6.24-.08,2.52.77,4.71,2.51,6.52,1.69,1.76,3.78,2.7,6.23,2.78,2.52.08,4.71-.77,6.53-2.51,1.84-1.76,2.75-3.95,2.79-6.45Z"/>
  <path class="cls-1" d="m9.64,13.48c-.06.05-.12.1-.17.15-.3.28-.61.56-.91.84-.08.07-.16.15-.24.22-.09.08-.2.11-.31.12-.11,0-.22,0-.33-.04-.12-.03-.21-.12-.27-.22-.06-.11-.12-.22-.16-.34-.13-.4-.26-.81-.38-1.21-.15-.5-.31-1-.46-1.5-.01-.05-.04-.07-.09-.09-.24-.08-.47-.16-.71-.24-.47-.16-.95-.32-1.42-.48-.23-.08-.42-.21-.56-.42-.18-.28-.17-.63.09-.88.14-.14.32-.23.5-.3.48-.19.95-.37,1.43-.56,1.02-.4,2.05-.8,3.07-1.2.63-.25,1.25-.49,1.87-.74,1-.39,2.01-.79,3.01-1.18.2-.08.39-.15.61-.17.21-.01.4.01.57.15.15.13.22.29.24.49,0,.13-.02.24-.05.36-.12.63-.25,1.27-.38,1.9-.15.74-.29,1.48-.44,2.21-.15.74-.3,1.48-.44,2.22-.13.65-.25,1.31-.39,1.96-.06.28-.24.48-.49.62-.27.15-.56.14-.85.04-.08-.03-.15-.07-.21-.12-.65-.5-1.31-1-1.96-1.5-.05-.04-.1-.08-.16-.12Zm-.95-1.71s.03.03.05.04c.59.46,1.19.92,1.78,1.38.5.38.99.76,1.49,1.15.07.05.13.1.2.15.16.11.34.04.37-.15.05-.26.1-.52.16-.79.15-.77.31-1.54.46-2.31.16-.82.32-1.63.48-2.45.16-.81.32-1.62.48-2.44.02-.11.04-.22.06-.34-.03,0-.05,0-.06,0-3.26,1.27-6.51,2.55-9.76,3.82-.03.01-.06.03-.09.05.04.06.09.07.15.09.7.24,1.4.47,2.11.71.06.02.1.02.15-.02.25-.16.49-.31.74-.47.76-.48,1.51-.96,2.27-1.44.79-.5,1.58-1,2.36-1.5.14-.09.27-.18.43-.23.38-.11.67.13.64.52,0,.14-.08.25-.18.34-.24.22-.49.45-.73.67-.34.3-.67.61-1.01.91-.42.38-.84.76-1.27,1.14-.38.34-.75.67-1.12,1.01-.05.05-.1.09-.15.14Zm-.41,1.9s.01,0,.02,0c.24-.22.48-.44.73-.66-.21-.16-.4-.31-.62-.47-.04.39-.09.76-.13,1.13Z"/>
</svg>